<?xml version="1.0" encoding="UTF-8" standalone="no"?>
<!-- Created with Inkscape (http://www.inkscape.org/) -->

<svg
   version="1.1"
   id="svg1"
   width="2795.0493"
   height="2447.0442"
   viewBox="0 0 2795.0494 2447.0442"
   sodipodi:docname="logo-light-mode.svg"
   inkscape:version="1.4.2 (f4327f4, 2025-05-13)"
   inkscape:export-filename="logo-light-mode.svg"
   inkscape:export-xdpi="96"
   inkscape:export-ydpi="96"
   xmlns:inkscape="http://www.inkscape.org/namespaces/inkscape"
   xmlns:sodipodi="http://sodipodi.sourceforge.net/DTD/sodipodi-0.dtd"
   xmlns="http://www.w3.org/2000/svg"
   xmlns:svg="http://www.w3.org/2000/svg">
  <sodipodi:namedview
     id="namedview1"
     pagecolor="#505050"
     bordercolor="#eeeeee"
     borderopacity="1"
     inkscape:showpageshadow="0"
     inkscape:pageopacity="0"
     inkscape:pagecheckerboard="0"
     inkscape:deskcolor="#505050"
     inkscape:zoom="0.20974969"
     inkscape:cx="1492.2549"
     inkscape:cy="1470.8007"
     inkscape:window-width="2560"
     inkscape:window-height="1417"
     inkscape:window-x="-8"
     inkscape:window-y="-8"
     inkscape:window-maximized="1"
     inkscape:current-layer="g1"
     showguides="true"
     showgrid="true">
    <inkscape:grid
       id="grid1"
       units="px"
       originx="0"
       originy="0"
       spacingx="1"
       spacingy="1"
       empcolor="#0099e5"
       empopacity="0.30196078"
       color="#0099e5"
       opacity="0.14901961"
       empspacing="5"
       enabled="true"
       visible="true" />
  </sodipodi:namedview>
  <defs
     id="defs1">
    <linearGradient
       id="swatch20">
      <stop
         style="stop-color:#fff90b;stop-opacity:1;"
         offset="0"
         id="stop20" />
    </linearGradient>
    <linearGradient
       id="swatch9">
      <stop
         style="stop-color:#ffe80b;stop-opacity:1;"
         offset="0.28465804"
         id="stop10" />
    </linearGradient>
    <linearGradient
       id="swatch9-1">
      <stop
         style="stop-color:#0b83ff;stop-opacity:1;"
         offset="0.45286506"
         id="stop9" />
    </linearGradient>
  </defs>
  <g
     inkscape:groupmode="layer"
     inkscape:label="Image"
     id="g1"
     transform="translate(325.22603,212.74756)">
    <path
       style="fill:#0f172a;fill-opacity:1;fill-rule:evenodd;stroke:#000000;stroke-width:0.9;stroke-opacity:1"
       d="m 785.9545,492.70096 c 0,0 580.929,-0.60833 581.0167,-0.59913 0,0.19638 205.723,338.59536 205.723,338.59536 l -259.9725,-0.98965 -74.6861,-105.71087 -329.48053,0.47937 -169.06267,292.82516 171.81544,291.7803 327.33446,-1.6676 81.5255,-114.9725 248.5214,-1.183 -205.1643,339.5141 -580.72353,-1.2729 -297.71467,-512.4488 c 0,0 199.994,-349.17387 300.8678,-524.34984 z"
       id="path1"
       sodipodi:nodetypes="ccccccccccccccc" />
    <path
       style="mix-blend-mode:normal;fill:#64748b;fill-opacity:1;fill-rule:evenodd;stroke-width:141.216;stroke-dasharray:none"
       d="m -324.73424,1018.848 148.64469,-266.17583 211.839208,-1.0764 c 0,0 295.847352,-494.37252 296.882152,-496.76163 L 226.94901,45.763087 380.18725,-209.41773 l 283.18208,-1.48274 c 0,0 128.50727,193.89885 129.83318,197.119586 l 549.69509,0.638172 128.8425,-197.442858 294.9012,0.65206 141.5866,260.374001 -105.8784,196.560679 299.2431,501.98679 222.3586,0.50827 145.8646,257.28347 -153.3427,262.1107 -219.33,1.7605 -302.8281,488.9347 113.3172,203.2889 -153.3433,263.941 -281.4135,1.2852 -125.8433,-193.577 -299.1692,-1.5498 -263.63593,-1.3658 -119.14734,195.7032 -290.60679,-0.064 -148.70717,-258.9514 c -4.03348,0.6434 109.17709,-205.1728 109.17709,-205.1728 L 37.870206,1272.3368 -176.72037,1271.8252 Z m 200.14332,155.143 190.218255,-1.8788 78.035855,-156.6264 -78.549805,-171.77509 -188.379185,-0.49347 -90.92581,173.57416 z m 383.95914,-157.1276 -108.50851,195.9927 293.89258,488.251 216.53214,0.9139 123.04535,200.4206 562.15372,-2.9153 115.8253,-192.7543 227.7241,-0.4747 297.3348,-495.0992 -109.8625,-200.4218 109.9592,-204.90136 -279.711,-494.26893 -234.8417,0.93337 L 1342.5198,117.63022 795.50209,118.3187 665.22576,312.80065 447.94178,316.13268 152.62933,801.85445 Z M 427.83318,216.50223 612.67018,215.61522 715.1093,52.678525 612.96862,-119.56607 432.79998,-119.63827 338.3167,47.186573 Z m -2.81485,1916.10627 186.44187,-1.6015 98.04634,-163.8697 -99.36764,-162.7922 -186.29084,-3.259 -96.45832,165.4208 c -0.2387,0.4094 97.62859,166.1016 97.62859,166.1016 z M 1524.2909,221.058 l 188.6622,3.7e-4 90.6804,-172.559862 -91.349,-169.587978 -185.6898,1.30221 -106.7828,174.695371 z m -2.4958,1914.7164 176.0882,0.154 101.3403,-174.2697 -89.0866,-158.9576 -196.0559,2.0518 -95.3505,160.0583 z m 552.5469,-961.8746 195.5331,10e-5 99.4633,-166.5703 -94.1636,-168.0894 -198.0377,-0.0284 -87.334,171.8606 c 1.7008,-0.1244 84.5389,162.8274 84.5389,162.8274 z"
       id="path1-8"
       sodipodi:nodetypes="ccccccccccccccccccccccccccccccccccccccccccccccccccccccccccccccccccccccscccccccccccccccccccccc"
       inkscape:export-filename="path1.png"
       inkscape:export-xdpi="96"
       inkscape:export-ydpi="96" />
  </g>
</svg>
